<?xml version="1.0" encoding="UTF-8"?>
<svg id="objects" xmlns="http://www.w3.org/2000/svg" version="1.1" viewBox="0 0 123.5 76.4">
  <!-- Generator: Adobe Illustrator 29.3.0, SVG Export Plug-In . SVG Version: 2.1.0 Build 146)  -->
  <defs>
    <style>
      .st0 {
        fill: #262626;
      }

      .st1 {
        fill: #0c1b18;
      }
    </style>
  </defs>
  <polygon class="st0" points="88 -256 92.2 -251.8 112.4 -271.9 92.2 -292 88 -287.8 100.9 -274.9 .1 -274.9 .1 -268.9 100.9 -268.9 88 -256"/>
  <g>
    <path class="st0" d="M84.2-184.5c0-.3,0-.6-.4-.8,0,.3.2.5.4.8Z"/>
    <polygon class="st0" points="84.2 -184.5 84.2 -184.5 84.2 -184.5 84.2 -184.5"/>
    <path class="st0" d="M107.1-175.3c-1.3-1.4-2.5-2.8-2.9-3.3-.8-.3-1.3-1.1-1.9-1.5h0c-.7-.5-3.6-3.9-4.3-4.4h0c-.7-.3-.4-.5-.7-1-.2.3-.9,0-1.1-.1h0c-.3-.3-1.2-.7-1.7-1.1h.2c-.6-.4-1.2-1.1-1.5-1.4-.6-.7-1.3-1.9-2.3-2.6v-1h-.2s-6.3,4.5-6.3,6.8h-.2c0,.1.2.3.2.3.2.3.5.3.3.4l-.3-.4c.2.3,0,.2-.2.2,0,.1.2.3.2.4,0,0,0-.1,0-.2.2,0,.5.1.6.4.3.3-.2.3,0,.6,1.6,1.8,3,3.6,4.7,5.3,0,.1,0,0,0,0,.6.4,1,.9,1.5,1.3v.4c0-.2,2.7,2.4,2.7,2.5l.3-.3c.5.5-.2.5.4.9.6-.2.7.8,1.1.8,0,0,.2.3,0,.4.3-.1.3.2.5.3,0,0,0-.1,0-.2l.4.3c0,.2,0,.4-.2.2.2.2.6.6,1,1.2-1.3-.2-7.3,1-10.3-1.4-4.4-3.7-10.6-.7-16-1.7-1.3-.2-2.8,0-4.4-.1-8.4-1.2-27.4.3-36.2,0-2.3,0-4.4.9-6.3,1.4-1.4.2-3-.3-4.1-.3-1.8,0-3.4.3-4.9.8,1.7-.2,2.9-.4,4.8-.6,1.3,0-.9,1.2-1.7,1.5-.4.2-.9-.9-1.3-.6-.8,0-1.5.4-2.3.7-.4.2-.3-.7-.5-.6-1.1.2-2,1.4-2.7,1.2-.5-.1-1-.3-1.5-.4h-.9c-.2,0-.4.2-.6.2-1.5.6-3.2,1.1-4.8,1.5h0c.9,0,1.8,0,2.8.6-.4-.2-.4-.5,0-.5,0,.2.2.3.4.5-.8.3-1.7.5-2.5-.2,0,0-.4.2-.5.3-.3-.1-.3-.4-.3-.7h-.6c.4.5,1.6,1.1,1.6,1.1,2.4,0,4.6,0,6.8.1.2-.2.3-.4.5-.3.2.2.3.3.5.3h1.2c.2-.1.1-.3,0-.4-.1-.1-.2-.2-.3-.3,0,0,.2.2.3.3s.3.2.5.3h.4-.3c-.1,0-.3,0-.4.1h-.3c.7,0,1.4,0,2.2.1h.5c.5-.1,1-.3,1.4.2h.5c.5,0,1.1,0,1.6.1,1.1,0,2.1.2,3.3.2,7.1.6,13.6.5,21,1,4,.3,19.1.7,22.9,1.3,7.5,1.1,14.3-.2,21.9,2.3,1.8.5,4.6.6,7.2.5-1.5,1.6-4.4,4.6-5.1,5.1-.4.2-.4-.3-.4-.3-.3.4,0,.4-.3.7,0,0,0-.2,0-.3,0,.2-.3.2-.2.3.2-.1.4.2.7.3l-.4.4v-.2c-.2,0,0,.7-.4,1-.7.6-1.4,1.4-2.1,2v-.5s-.2.3-.4.3c.3,0-.2.4,0,.3,0,.9-1.1,1.2-1.3,1.9.3.4,5,6.9,5.4,7.3,0,.1-.3.3-.4.3,0,0,.4-.2.5-.4l-.2-.2c.3-.4.2,0,.5-.3.2.2,0,.5-.3.8.3-.2.6-.3.5-.6.3-.1.2.2.5,0,0-.2.2-.7.5-.8h0c.7-.3.5-1,1.2-1.3h0c.3,0,.5-.4.9-.6,0,0-.3,0-.2-.2.5-.2.6-.6,1-.7v-.4c1.3-1.2,5.9-6.3,7.2-7.6h0c.9-.9,2.3-2.4,3.7-3.8,1.1-1.2,2.2-2.3,3.2-3.4,1.2-1.3,2.2-2.4,3-3.3.9-.5,1.6-1.3,2.2-1.9-.5.3-.6.2-.3,0h0c-1.7-1.7-.3-.1-2.2-1.8-1.1-1-3.4-3.3-5.7-5.7h0ZM21.8-167.5c.5-.2,1.2,0,1.7.5-.7.4-1.2,0-1.7-.5ZM97-161.7h0Z"/>
  </g>
  <path class="st0" d="M76.1-60.9v16.5c0,1.1.6,2.1,1.6,2.6s.9.4,1.4.4,1.2-.2,1.7-.5l29-19.5c.8-.6,1.3-1.5,1.3-2.5s-.5-1.9-1.3-2.5l-29-19.5c-.9-.6-2.1-.7-3.1-.2s-1.6,1.5-1.6,2.6v16.5H.1c-1.7,0-3,1.3-3,3s1.3,3,3,3h76ZM82.1-77.7l20.6,13.9-20.6,13.9v-27.7h0Z"/>
  <path class="st1" d="M111.1,27.5l-3.1-3-1.7-1.5-3.4-3c-7.4-6.1-13.5-14.7-20.2-19-6.2-3.6-8.8,2.7-5.5,9.1-.3.3-1,1-1.3,1.3-4.3-5.5-5,0-7.2,1.1,2.5,2.5,4.6,5.2,6.1,8.6.6.6,1.8,1.8,2.4,2.5,1.8,1.8,3.6,3.5,5.3,5.3-10.5,0-21.7.1-32,1.8-9.4,1.4-20.7-.6-30,.9-2.8.5-7.5-1.4-9.4.9h2.8c-2.8,1.4-5.6,0-8.4.5,0,.9,0,1.4-.9,1.8,1.9,0,4.7-.5,6.6,0v1.4c-1.9.5-4.7-.5-6.6,0v1.8c0,.5-.9.5-1.9.5h3.8v1.8c0,.5-.9.5-1.9.5,0,.9-.9,1.8,0,2.3h2.8c-3.8.5-5.6,2.7-5.6,4.1.9-.5.9.9,1.9.5-2.8,1.4-5.6,3.2-1.9,3.6,27,1.1,54.6,0,81.9-.8q-.3.3,0,0c.7,0-8.2,7.4-11.8,10.4-1.4,1.4-2,3.2-2.2,4.9,6-3.8,11.6-8.4,17-13.3.8-.7,1.6-1.5,2.4-2.2h.7c-.2.2-.5.4-.7.6-6.8,5.5-12,11.3-18.4,15.9-.4.2-.7.5-1.1.7v2.1c.4,2.8,2,5.7,6,4.8l1.8-1.8c.9.4,1.4,1.2,1.9,2,4.3-3.6,8.5-7.3,12.8-11,2.6-2.4,5.2-4.7,7.8-7,1.3-1.1,2.7-2.2,4-3.2l.5-.4.3-.2h0l.2-.3,1.6-1.3c1.1-.9,2.2-1.8,3.3-2.7-1.1.9-2.2,1.9-3.2,2.8l-1.6,1.4-1.1.9c-1.3,1.1-2.7,2.2-4,3.3-2.7,2.2-5.3,4.5-7.9,6.7-4.1,3.8-8.2,7.8-12.3,11.7.6.9,1.3,1.5,2.7,1.1,2.2-.3,5.5-5.5,8.3-7.6,4-2.7,7.8-6,11.5-9.3l2.8-2.5,1.4-1.2.7-.6,1.2-1.1c3.4-3.2,6.9-6.4,10.6-9.6,1.5-1.3,3-2.7,4.5-4-3.8-4.2-8.1-8.5-12.4-12.6v-.4Z"/>
  <path class="st0" d="M-349.9-372.9h100.8l-4.9,4.9c-1.2,1.2-1.2,3.1,0,4.2.6.6,1.4.9,2.1.9s1.5-.3,2.1-.9l10-10c1.2-1.2,1.2-3.1,0-4.2l-10-10c-1.2-1.2-3.1-1.2-4.2,0-1.2,1.2-1.2,3.1,0,4.2l4.9,4.9h-100.8c-1.7,0-3,1.3-3,3s1.3,3,3,3h0Z"/>
  <path class="st0" d="M-257.9-274.9h-92c-1.7,0-3,1.3-3,3s1.3,3,3,3h92v14.2l25-17.2-25-17.2v14.2Z"/>
  <g>
    <path class="st0" d="M-348.1-162.7c-.4-.2-.8-.3-1.4-.3.3.2.9.3,1.4.3Z"/>
    <path class="st0" d="M-348.1-162.7h0Z"/>
    <path class="st0" d="M-341.7-171.8c-1.5,0-3.9-.5-6-.2l-1.3-.6h-.2s-2.1,7.7.6,9.3v.2h.5c.6.1.9-.1.9,0h-.9c.6,0,.2.2,0,.3.3,0,.5,0,.7.1.1,0,0,0-.2-.1.3,0,.8-.3,1.3-.2.7,0,0,.4.8.4,4.1.2,8,.4,12.1.4h-.1c1.2.1,2.3.1,3.5,0,.3,0,.4.2.5.3-.2-.2,6.2-.2,6.3-.2v-.4c1.3,0,.4.5,1.6.4.4-.6,1.9,0,2.3-.2,0,0,.5,0,.5.2.2-.3.6,0,.9-.1.1,0,0,0-.2-.2h.8c.3,0,.4.2,0,.2,2.1.1,12.1.4,14.4.3-.3-.2-1,0-1.2-.4.6-.2.9,0,1.1-.1.2.5,1.3.1,1.8.7l.2-.3.3.2c2.6-.3.6-.2,2.9,0,1.3,0,2-.5,2.7-.3-.1,0-.4-.2,0-.3,0,.3.9-.2,1.1,0,.3,0,1.4,0,1.1-.4.2.2,1.2.3.6.4h.9-.4c1.1-.2,1.7.1,2.5-.2h-.4c.7-.2,1.2-.2,1.5.2h-.7c1.1.1,1.8,0,2.7-.1h-.3c1.2-.4,7.4-.7,8.4-1.1l-.5-.3.9-.2c-.1,0-.5.9-.5.8,2,0,12.4-.2,14.3,0,.7.2.1.4.1.5.9-.1.4-.3,1.2-.3s0,.2-.2.3h.7c-.4-.1-.2-.5-.4-.7h1v.3c.2,0,.6-.6,1.5-.5h5.1c0,.1-.4.2-.7.3h.8c-.4-.2.7-.2.4-.3.2-.1.5-.2.8-.2-.4.6-.8,1.2-.8,1.4h.4l-.2.5s-.5-.8-.4-.8c-.8.8-4.7,5-5.6,5.6-.4.2-.4-.3-.4-.3-.3.4,0,.4-.3.7-.1,0-.1-.2-.1-.2-.1.2-.3.2-.2.3.2,0,.4.2.6.3l-.4.4v-.2c-.2,0,0,.6-.4.9-.7.6-1.4,1.3-2,1.9v-.5s-.2.2-.3.3c.3,0-.2.4,0,.3,0,.9-1.1,1.1-1.2,1.8.3.4,5,6.8,5.4,7.2-.1.1-.3.2-.3.3.1,0,.4-.1.5-.3l-.2-.2c.2-.4.2,0,.5-.3.2.2,0,.5-.3.7.2-.2.6-.3.5-.6.3-.1.2.2.5,0,.1-.2.2-.6.5-.7h0c.7-.3.5-1,1.1-1.3h0c.3,0,.4-.4.8-.6,0,0-.3,0-.2-.2.5-.2.6-.6,1-.7v-.4c1.3-1.1,5.6-6,6.8-7.2h0c.9-.9,2.2-2.3,3.5-3.7,1.1-1.2,2.2-2.3,3.2-3.4,1.1-1.2,2.1-2.3,2.8-3.1.8-.5,1.5-1.2,2.1-1.8-.5.3-.6.2-.3,0h0c-1.6-1.6-.3-.1-2.1-1.7-1.1-.9-3.3-3.1-5.5-5.4l-.6-.6c-.1-.2-.3-.3-.4-.5-.3-.3-.6-.6-.8-.9-.5-.6-.9-1-1.1-1.3-.8-.3-1.2-1.1-1.9-1.4h.1c-.6-.4-3.4-3.7-4.1-4.2h0c-.7-.3-.3-.5-.7-1-.2.3-.9,0-1.1-.1h0c-.3-.3-1.2-.6-1.6-1h.2c-.5-.3-1.2-1.1-1.4-1.3-.5-.7-1.2-1.9-2.2-2.5v-1h-.2s-6.2,4.6-6.3,6.8h-.2c0,.1.2.3.2.3.2.3.5.3.3.4l-.3-.4c.2.3,0,.2-.2.2,0,.1.2.2.2.4.1,0,0-.1,0-.2.2,0,.5.1.6.4.2.3-.2.3,0,.6,1.5,1.7,2.8,3.4,4.5,5,0,.1,0,0-.1,0,.6.4,1,.9,1.5,1.2v.4c0-.2,1.6,1.4,2.3,2-.6,0-1,0-1.5-.1l-.6.2c-3,0-14.8.3-17.8.3h.1c-4.6,0-14,0-18.7.4-.7-.2-1.7-.2-2.5-.3.4.1.3.3,0,.3-2.3,0-.2.2-2.5.3-2.7.2-13.1,0-15.5-.2-1.3.4-2.9,0-4.2.3h.1c-1.4,0-9-.3-10.6-.2h.2c-1.4.3-1.2-.1-2.3-.2.1.4-1,.6-1.5.7h0c-.7,0-2.2.3-3.3.4v-.2c-.9.2-2.6.1-3.3.2h0Z"/>
    <path class="st0" d="M-266.8-183.6c0-.3,0-.6-.3-.8,0,.3.1.5.3.8Z"/>
    <polygon class="st0" points="-266.8 -183.6 -266.8 -183.6 -266.8 -183.6 -266.8 -183.6"/>
  </g>
  <path class="st0" d="M-258.8-52.5c-2,2.1-2.2,4.2-2.1,7.6,3.5,0,5.5,0,7.6-2.1,1.1-1.1,4.4-4.3,7.4-7.4,2.2-2.2,4.2-4.2,5.6-5.6s1.9-1.9,1.9-1.9c0,0,.1,0,2-2-.3-.3-1.8-1.8-3.9-3.9s-2.8-2.8-4.4-4.4c-2.7-2.7-5.6-5.6-6.6-6.6-2.1-2-4.2-2.2-7.6-2.1,0,3.5.1,5.5,2.1,7.6.9.9,3.1,3.1,5.4,5.5h-69.7c-12,0-18.8,1.4-28.8,3.9,10,2.5,16.8,3.8,28.8,3.9h69.7c-3,3-6.3,6.3-7.4,7.4h0Z"/>
  <path class="st0" d="M-246.9,28.8c-2.6-2.6-4.8-4.8-5.9-6l-.4-.4c-2.1-2.2-4.8-4.8-6.9-6.3-1-.7-2.1-1.3-3.2-1.9.3.5.5,1,.7,1.5-.8-.9-1.7-1.8-2.2-1.9-2.2-1.5-1.5,0-1.4,1.2.3.8-.8.4-.2,1.5-.6-.6-.8-.9-1.4-1.5-.3.2,1.9,1.7,1.1,1.6-.5-.6-1.2-1.1-1.8-1.7-.1.5,1.9,2.1,1.5,2.3-.4-.2-1.2-2-1.7-1.8,0,0,.5.7.7.9-1.9-1.7-3.2-2.3-2-.2-.6-.6-1.2-1.5-1.8-2.1h0c.2.3.6.8.9,1.1l-.9-.9v.3c.2.3.4.6.7.9l-.7-.7c0,.3.1.6.2.9.5,1.1,1,2.2,1.4,2.6,3.3,3.7,6.7,7.3,10.1,10.8.1-.1,0-.5.5-.2,1,.8,1.3,2,2.3,2.8l.3-.2c.6.8,1.2,1.7,1.9,2.5.1,0,.3.2.4.4-42.2,0-65.5.5-107.2.9-3,.2-1.5.7-1.5,1.1,6,0,12.1-.2,16.6.2,1.5,0-1.5.9,0,1.4h6c1.5.7-1.5,1.4,0,2s7.5.2,9,.7c4.5.5-3,.7-7.5.7,1.5.5-3,0-3,.5,0,.9,0,1.8,6,2.5,1.5.2,0,.9,0,1.4,18.1,0,18.3,0,36.4-.9,15.1-.7,33.3.3,48.2-.5h1.4c-1.2,1.6-2.5,3.2-3.8,4.8-.7,1.1-1.4,2.3-2.2,3.3-1.2,1.4-3.1,3-4.4,4.2,1,.6-1.7,4.2-.3,4.4-.9.9-2.2,2.1-2,2.4.5.9.6,2.4-1.2,5.1-.8,1-2.5,2.1-2.7,2.5-.3.7,1.7-.7,1.4,0,6.9-6.4,13.1-13.1,19.8-19.8.4-.5,1.3-1.6,2.6-3,.3-.3.6-.7,1-1.1.7-.7,1.4-1.4,2.1-2.2.2-.2.3-.4.5-.5s.3-.3.5-.5l.2-.2c1.1-1.1,2.3-2.3,3.5-3.5-1.9-1.8-3.8-3.8-5.8-5.7s-3.9-3.9-5.7-5.7h-.1Z"/>
  <polygon class="st0" points="-97.8 -250.8 -87.9 -240.9 -57 -271.9 -87.9 -302.8 -97.8 -292.9 -83.8 -278.9 -174.9 -278.9 -174.9 -264.9 -83.8 -264.9 -97.8 -250.8"/>
  <path class="st0" d="M-169.9-156.4h76v6.8c0,4.4,5,7,8.6,4.5l26-18.3c3.1-2.2,3.1-6.8,0-8.9l-26-18.3c-3.6-2.5-8.6,0-8.6,4.5v6.8h-76c-2.8,0-5,2.2-5,5v13c0,2.8,2.2,5,5,5h0Z"/>
  <path class="st0" d="M-56.5,38.1l-25.6-18c-1.6-1.1-3.8,0-3.8,2v11.8h-57c-9.7,0-18.8,1.8-24.7,3.4-2.5.7-2.6,4.2-.2,5,7.8,2.7,16.1,4,24.4,4h57.5v11.8c0,1.9,2.2,3.1,3.8,2l25.6-18c1.4-.9,1.4-3,0-3.9h0Z"/>
  <g>
    <path class="st0" d="M-168.1-379.4h.3-.5.2Z"/>
    <path class="st0" d="M-172-379h-1.4,1.4Z"/>
    <path class="st0" d="M-173.4-379h-.3.3Z"/>
    <path class="st0" d="M-174.7-378.5h1.3-.2c0,.1.2.3.8.6.9.4.5.1,1.3.2h2.1c1.1,0,.2,0,.7,0s.4,0,.6.2h-.6c-.5,0-.6.2-.2.2-.5.3-.2.5.5.8-.2,0-.3.2-.3.3-.8.2-1.3.5-1.5.8v.2c.1.2.8.4,1.8.6h.3l-.3.3c1.3.5,3.9,1,5.5,1.5l1.2.3c.9.2,2.2.4,3.9.5h2.8c-1.8.2-2.8.6-2.5,1,.6.6,4.6,1.1,9.1,1,11.8,0,23.2,0,35.3-.3,8.5-.2,16.3-.4,24.6-.4v20.4h0l.2-.2.6-.4c1.3-.9,2.5-1.7,3.7-2.5s1.2-.8,1.8-1.2c.5-.4,1-.7,1.5-1.1,1.2-.9,2.4-1.8,3.6-2.7,2.4-1.8,4.7-3.7,7.1-5.7,1.8-1.6,3.6-3.3,5.3-4.9.9-.8,1.7-1.7,2.5-2.5l1.3-1.4c.8-.7,1.4-1.5,1.6-2.4.2-.8,0-1.6-.5-2.3-.4-.7-1.1-1.2-1.9-1.6-1.1-.6-22.3-16.2-22.3-16.2v-.3c0-1-.3-1-.4,0l-.2-.2v-.8c0-.3,0,0-.2,0,0,0,0,.1,0,.4h0v-.3h0c0,.1,0-.1,0-.4v-.5c0,0,0,0,0,0h0v.8l-1-.8v1.5c-.2-.2-.4-.4-.6-.6,0-.1-.2-.2-.2-.2,0,0,0,.1.2.2.2.2.4.4.6.6v1.6s0,0-.2-.1c-.5-.5-.9-.9-.9-.8s.4.7,1,1.2h0v.9h0c0-.6-.2-.9-.3-1.1h0s-.2.6-.2,1.3v.2-.2c-.3.9-.5,2.7-.7,3.8v.8c-.2.6-.3,1.6-.3,2.7v2c0-1.3-.2-2-.4-1.7-.2.3-.4,2.5-.4,5-6.3,0-12.5.1-18.8.2-2.2-.5-7-.8-11.2-.9-1.6,0-3,0-4.5.1h2c-2,0-3.7.1-5.4.3h-.5c-4-.3-8.6-.2-12.8-.4,0,0,.2.1.3.2-.8,0-1.2-.2-2.1-.2.2,0,.4,0,.7.1-.9-.1-2-.2-3.2-.2-2.6-.3-5.8-.5-9.2-.6h0c-.4,0-1.1-.1-1.8-.1h-.9c-2.1-.3-4.6-.6-7.4-.7.5,0,1.1.1,1.6.2-.8,0-1.6-.1-2.5-.1,0,0,.2,0,.3.1-2.8-.3-6.6-.2-8.6.2-1.9.4-1.3,1,1.5,1.2h.4c-1.4.1-2.7.2-3.4.5-.4.1,0,.3,0,.4-.1.2,1,.4,2.5.4h1.2c1.7,0,3.5.1,5.1.2h.9c.1,0,0-.1-.3-.1-1.2-.1-2.4-.2-3.5-.3h-.3.2-.3,1c2.1,0,4.1.2,6.1.3.1,0,0,0,.1.1h.3-1.1c-.8,0-1.3.1-1.6.1h-5.8c-1.3,0,0,0,0,0h-2.7.2-.6s-.3,0-1-.2h-1c0,0-.2,0-.4.1-.3.1,0,0,0,0,0,0,.1,0,.2.1v.9ZM-66.6-367.7c.4-.3.7-.7.7-.7h-.2c1.4-1.3,2.7-2.6,4-4,.2-.2.4-.4.6-.6.2-.2.4-.4.6-.6.6-.6,1.1-1.1,1.3-1.8,0-.5,0-1.1,0-1.5-.2-.5-.6-.9-1-1.2-.2-.2-.4-.3-.7-.5l-.7-.4s-1.4-1-.2-.4l1,.6c.4.3.8.5,1.2.9.7.7,1.1,1.6.8,2.6-.2.6-.5,1.1-1,1.6l-1.2,1.2c-.6.6-1.3,1.3-1.9,1.9s-1.2,1.1-1.8,1.7l-.2.2-1.7,1.5.6-.5h0ZM-86.5-392.3l.2.7-.3-.7h.1ZM-88.5-379.6v.4c-3.9,0-7.9-.1-11.7-.2,3.9,0,7.8-.1,11.7-.2h0ZM-156.1-380.4h0c3.3.2,6.5.4,10,.5h.7c.3,0,.6.1,1,.2h-1.4.2c-1.7,0-3.3,0-5-.1-2.3-.1-4.9-.3-7.4-.3h0c.7,0,1.4-.1,2-.2h0ZM-153.6-378.6c1.9,0,3.7.1,5.5.2h-.6c-.2,0-.6,0-.4,0h-7.1c-.7-.2-1.4-.3-2.4-.5,1.6.1,3.4.1,5.1.2h-.1ZM-166.9-375l-.9.6h0l1-.6h-.1Z"/>
  </g>
  <path class="st0" d="M-49.7-66.5c-2.5,1.8-5.1,3.5-7.6,5.3,0,0-.3.2-.4.3.2-.3.3-.6.4-.9,2.2-1.6,4.4-3.1,6.7-4.7-2.2-1.4-4.4-2.9-6.7-4.3-1.1-.7-2.2-1.4-3.4-2.1-.6-.3-1.1-.7-1.7-1.1l-.7-.4-.5-.3c0-.2.4-.6.5-.8-4.8-3.2-9.5-6.5-14.3-9.8-1.6-1-3.2-1.7-4.6-2.2l-2.4-1.9-3.7-3.2c-2.4-2.1-4.9-4.1-7.3-6.2,0,4.8.2,24.1.2,24.7-18.8,0-36.7.8-55.2,0,13.2.9,25.5,1.3,38.6.9,0,.3-.4.7,0,.9-13.4,2.2-25.9-1.4-39.3,0v-1.8c-4.7-.2-9.5-.5-14.3-.9-2,0-3.7.8-5.2,1.9,14.2,3.1,29.8,2.8,44.6,3.6-6.2,0-13.4.4-19.6-.5-8.9-.9-17-.4-25-1.8-.4,0-.9-.2-1.3-.3-.6.5-1.1,1-1.5,1.5-1.8,2.2-2.7,5.4.9,7.7h2.7c.4.9.1,1.8,0,2.8,5.8.5,11.6.9,17.3,1.3,7.2.2,14.4.7,21.3,2-7.1-.9-14.2-1.5-21.3-2-5.8-.2-11.6-.2-17.5-.4-.2,1.1-.1,2,1.1,2.7,1.8,1.3,8,0,11.6.4,9.8,1.8,20.5,1.3,30.4,2.7,7.1.9,14.3.4,21.4,0,3.3-.3,6.8-.3,10.1-.2,0,2.1.3,17.5.3,23.2,4.9-4.3,9.9-8.7,14.7-12.8l5-4.1,3.9-3.1c1-.8,2-1.6,3-2.4l9.2-6.4c.5-.4,1-.8,1.3-1.3l.5-.4c2.6-1.9,5.3-3.7,7.9-5.6-4.3-2.8-8.6-5.7-13-8.5,4.3,2.9,8.6,5.7,12.8,8.5h0ZM-74.7-48.2l-1.9,1.5-2.1,1.7c-4.5,3.7-9.1,7.8-13.8,11.9.3-.4.9-1.2.2-.8,3.5-3.3,6.8-6.3,10-9.1.9-.4,2.5-1.6,4.3-3.1l4.4-3.1c-.4.3-.8.7-1.2,1h0Z"/>
  <path class="st0" d="M11-378.1c5-.1,11-.5,15.7-.6s8.2-.1,8.2-.1c2.8-.2,5.6-.3,8.4-.4,7.6-.1,15.2-.1,22.8.2,7.6.3,15.1,1,22.4,2.3,2.8.5,5.6,1.1,8.3,1.9-3.7,2-7.4,3.9-8.8,4.6-2.8,1.5-3.7,3.6-4.9,7,3.5,1,5.7,1.3,8.6,0,1.5-.8,6.1-3.2,10.3-5.4,2.7-1.4,5.3-2.8,7.2-3.8,2.9-1.6,4.7-2.6,4.7-2.6h0c-.2-.3-.4-.6-.7-1-.6-.7-1.4-1.8-2.4-3.1-.5-.6-1.1-1.3-1.7-2.1-.3-.4-.6-.8-.9-1.2-.2-.2-.4-.4-.6-.7-.7-.8-1.4-1.7-2.2-2.6-3.1-3.6-6.4-7.5-7.5-8.8-2.1-2.4-4.2-2.8-7.8-3.4-.4,3.6-.2,5.9,1.8,8.4.7.9,2.3,2.7,4.2,4.9-2-.5-4.1-.9-6.1-1.3-7.9-1.4-15.7-2.1-23.6-2.4-7.8-.4-15.6-.4-23.4-.2-2.5,0-5,.2-7.6.3,0,0-1.7.2-4.1.6-2.5.4-5.7.9-8.9,1.5-6.4,1.3-12.5,2.8-11.9,2.8-10.2,2.8-16.4,6,.5,5.1h-.1Z"/>
</svg>