<?xml version="1.0" encoding="UTF-8"?>
<svg id="Layer_1" xmlns="http://www.w3.org/2000/svg" version="1.1" xmlns:xlink="http://www.w3.org/1999/xlink" viewBox="0 0 288 288">
  <!-- Generator: Adobe Illustrator 29.3.0, SVG Export Plug-In . SVG Version: 2.1.0 Build 146)  -->
  <defs>
    <style>
      .st0 {
        fill: #e4523d;
      }
    </style>
  </defs>
  <g id="Layer_1_xA0_Image">
    <path class="st0" d="M146.5,1.3c6.8.8,13.4,2.3,20.1,3.8,17.4,3.9,41.1,10.9,54.5,22.8s9.3,10.5,14,15.6c10.7,11.4,21.6,17.5,30.6,31.2,9.4,14.3,15.3,27.1,18.7,44.1,1.2,6.1,2.3,12.1,3.2,18.2s.5,7.6,0,10-2.1,6.3-3.4,9.4c-2.7,6.2-7,11.8-9.6,18.1-5,12.2-1.6,25.4-6.1,37.6s-29.7,36.3-39.9,45.5c-18.9,17.1-38.8,18.9-62.4,25.5,0,0-14.7,3.1-19.7,3.7s-6.8.3-9,0c-4.4-.7-8.7-2.1-13.1-3.3-6.2-1.7-12.2-4.1-18.4-5.7-13.4-3.5-24.1-4.2-36.7-11-24-13-40.6-29.7-51.1-55.4-4.2-10.4-3.3-20.7-6-31.1-1.8-7.1-5.7-13.7-8.2-20.5s-2.9-7.3-3.6-11.2-.5-7.2,0-9.5c.8-3.9,2.1-7.6,3.4-11.4,2.1-6.5,5.1-12.6,6.9-19.2,5-18.4,3.3-29,16.3-44.9,13-15.9,32.8-30.8,53.4-42C99.2,11.1,118.2,3.2,139.5,1.3c1.8-.2,5.3-.2,7,0Z"/>
  </g>
</svg>