<?xml version="1.0" encoding="UTF-8"?>
<svg id="Layer_1" xmlns="http://www.w3.org/2000/svg" version="1.1" xmlns:xlink="http://www.w3.org/1999/xlink" viewBox="0 0 288 288">
  <!-- Generator: Adobe Illustrator 29.2.1, SVG Export Plug-In . SVG Version: 2.1.0 Build 116)  -->
  <defs>
    <style>
      .st0 {
        fill: #231f20;
      }
    </style>
  </defs>
  <path class="st0" d="M143,5.2c1.2,0,2.4,0,3,.1,6.4.8,12.6,2.1,19.1,3.6h.6c24.6,5.6,42.8,13.2,52.7,22,8.4,7.4,9.5,9.3,10.4,10.9.7,1.1,1.4,2.4,3.3,4.4,4.1,4.4,8.2,8,12.2,11.4,6.5,5.7,12.6,11.1,18,19.2,9.8,14.9,15,27.2,18.1,42.7,1.4,7.2,2.4,12.7,3.2,18,.8,5.2.5,6.4,0,8.3v.3c-.5,2.2-2.3,6.5-3.2,8.6-1.2,2.7-2.8,5.4-4.4,8.2-1.8,3.1-3.8,6.4-5.2,9.9-2.8,6.9-3.2,13.9-3.6,20.7-.3,6-.6,11.7-2.6,17-3.9,10.5-26.2,32.6-38.8,43.9-14.4,13-29.5,16.7-46.9,21-4.4,1.1-9,2.2-13.7,3.5-1.4.3-14.7,3.1-19.2,3.6-1.8.2-3.2.3-4.4.3s-2.2-.1-3.3-.3h-.2c-3.1-.5-6.2-1.4-9.5-2.3-1.1-.3-2.1-.6-3.2-.9-2.8-.8-5.7-1.7-8.4-2.6-3.2-1.1-6.6-2.2-10-3.1-3.8-1-7.4-1.8-10.9-2.5-8.8-1.9-16.3-3.5-24.9-8.1-24.4-13.2-39.6-29.7-49.3-53.4-2.3-5.6-2.9-11.2-3.6-17.2-.5-4.3-1-8.8-2.2-13.4-1.2-4.7-3.2-9-5.1-13.3-1.2-2.6-2.3-5.1-3.2-7.6-.5-1.5-1-2.7-1.4-3.7-1.3-3.5-1.6-4.2-2.1-6.9-.7-3.8-.3-6.6,0-8,.7-3.4,1.8-6.7,3-10.3l.2-.6s0,0,0,0c.9-2.7,1.9-5.3,3-8,1.4-3.6,2.9-7.4,4-11.4,1.4-5.2,2.3-9.9,3.1-14,2.1-10.9,3.6-18.7,12.4-29.4,12-14.7,30.5-29.2,52.3-41,21.6-12.1,39.4-18.2,57.5-19.8,0,0,0,0,0,0,.7,0,1.9-.1,3.1-.1M143,1.1c-1.3,0-2.6,0-3.5.1-21.3,1.9-40.3,9.8-59.1,20.3-20.6,11.2-40.4,26.1-53.4,42-13,15.9-11.3,26.5-16.3,44.9-1.8,6.6-4.8,12.7-6.9,19.2-1.3,3.8-2.6,7.5-3.4,11.4-.5,2.3-.7,5.6,0,9.5.7,3.9,1.1,4.4,3.6,11.2,2.5,6.8,6.4,13.4,8.2,20.5,2.7,10.4,1.8,20.7,6,31.1,10.5,25.7,27.1,42.4,51.1,55.4,12.6,6.8,23.3,7.5,36.7,11,6.2,1.6,12.2,4,18.4,5.7,4.4,1.2,8.7,2.6,13.1,3.3,1.3.2,2.4.3,4.1.3s2.8,0,4.9-.3c5-.6,19.7-3.7,19.7-3.7,23.6-6.6,43.5-8.4,62.4-25.5,10.2-9.2,35.4-33.3,39.9-45.5,4.5-12.2,1.1-25.4,6.1-37.6,2.6-6.3,6.9-11.9,9.6-18.1,1.3-3.1,2.9-7,3.4-9.4s.9-3.9,0-10-2-12.1-3.2-18.2c-3.4-17-9.3-29.8-18.7-44.1-9-13.7-19.9-19.8-30.6-31.2-4.7-5.1-.6-3.7-14-15.6-13.4-11.9-37.1-18.9-54.5-22.8-6.7-1.5-13.3-3-20.1-3.8-.8,0-2.1-.1-3.5-.1h0Z"/>
</svg>