<?xml version="1.0" encoding="UTF-8"?>
<svg xmlns="http://www.w3.org/2000/svg" version="1.1" xmlns:xlink="http://www.w3.org/1999/xlink" viewBox="0 0 572 568">
  <!-- Generator: Adobe Illustrator 29.2.1, SVG Export Plug-In . SVG Version: 2.1.0 Build 116)  -->
  <defs>
    <style>
      .st0 {
        fill: #231f20;
      }
    </style>
  </defs>
  <g id="Background_xA0_Image">
    <image id="Background_xA0_Image1" data-name="Background_xA0_Image" width="740" height="740" transform="translate(696 139)" xlink:href="roundborder-1.png"/>
  </g>
  <g id="Layer_1_xA0_Image">
    <path class="st0" d="M290.2,8c5,1,10.1,1.8,15,2.7,7.9,1.4,16.1,2.8,24.1,4.6,48.9,11,85.2,26.1,105,43.7,6,5.3,11.1,11.5,16.6,18,3.5,4.1,7,8.4,10.9,12.5,8.2,8.8,16.4,15.9,24.3,22.8,12.9,11.3,25.1,21.9,35.7,38.1,19.4,29.6,29.9,54.2,36.1,84.9,1,5.2,1.9,10.6,2.7,15.8,1,6.5,2,13.1,3.5,19.7v17.5c-1.2,2.9-2.1,5.7-3,8.5-1,3-2,5.9-3.1,8.6-2.3,5.4-5.4,10.7-8.7,16.3-3.7,6.3-7.5,12.8-10.4,19.8-5.6,13.7-6.3,27.6-7,41.1-.6,12-1.2,23.4-5.2,34-7.6,20.7-53.9,66.2-77.4,87.3-28.7,26-58.8,33.3-93.7,41.9-8.7,2.1-17.7,4.3-27,6.9l-38.1,7.1h-16.1c-4.6-1.4-9.2-2.4-13.7-3.4-3.9-.9-7.6-1.7-11.3-2.8-5.5-1.5-11.1-3.4-16.5-5.2-6.5-2.2-13.3-4.4-20.2-6.2-7.6-2-14.7-3.5-21.6-5-17.5-3.8-32.6-7-49.7-16.2-48.5-26.2-78.8-59-98.2-106.2-4.6-11.1-5.9-22.4-7.3-34.4-1-8.6-2.1-17.5-4.4-26.6-2.4-9.3-6.3-18-10.1-26.4-2.3-5.2-4.6-10.1-6.4-15.1-1.2-3.2-2.2-6.5-3.2-10-1.1-3.6-2.2-7.2-3.5-10.9v-16.1c1.5-4.2,2.6-8.3,3.7-12.3.9-3.3,1.7-6.3,2.7-9.4,1.7-5.1,3.7-10.1,5.7-15.4,2.9-7.4,5.9-15.1,8.2-23.2,2.9-10.4,4.7-19.7,6.3-28,4.2-21.6,7.3-37.2,24.7-58.6,25.6-31.4,57.7-56.6,103.9-81.7,33.7-18.3,70.1-30.7,114.6-38.9h12.5M291,0h-14c-41.9,7.6-80.3,19.5-117.7,39.8-41,22.3-76.5,47.3-106.3,83.7-25.9,31.7-22.5,52.9-32.5,89.5-3.6,13.1-9.5,25.4-13.8,38.2-2.5,7.6-3.9,15.4-6.7,22.8v19c2.8,7.3,4.5,14.9,7.3,22.2,5,13.5,12.6,26.7,16.3,40.7,5.4,20.9,3.6,41.4,12,62,20.9,51,53.9,84.4,101.8,110.2,25,13.5,46.5,15,73.1,21.9,12.4,3.2,24.3,8,36.6,11.4,8.6,2.4,17.5,3.9,26,6.5h18l39.2-7.3c47.2-13.1,86.7-16.6,124.3-50.7,20.3-18.3,70.7-66.8,79.5-90.5,9-24.3,2.2-50.6,12.1-74.9,5-12.4,13.7-23.7,19-36,2.6-6.1,4.2-12.6,6.8-18.7v-20c-2.7-11.9-3.9-24.1-6.3-36.2-6.8-33.7-18.6-59.2-37.3-87.7-17.9-27.3-39.5-39.3-60.9-62.1-9.5-10.1-17.5-21.8-28-31-26.7-23.7-74-37.7-108.5-45.5-13.3-3-26.7-4.9-40-7.5h0Z"/>
  </g>
</svg>