<?xml version="1.0" encoding="UTF-8"?>
<svg xmlns="http://www.w3.org/2000/svg" version="1.1" xmlns:xlink="http://www.w3.org/1999/xlink" viewBox="0 0 572 568">
  <!-- Generator: Adobe Illustrator 29.2.1, SVG Export Plug-In . SVG Version: 2.1.0 Build 116)  -->
  <defs>
    <style>
      .st0 {
        fill: #e4423d;
      }
    </style>
  </defs>
  <g id="Background_xA0_Image">
    <image id="Background_xA0_Image1" data-name="Background_xA0_Image" width="740" height="740" transform="translate(696 139)" xlink:href="round-1.png"/>
  </g>
  <g id="Layer_1_xA0_Image">
    <path class="st0" d="M291,0c13.3,2.6,26.7,4.5,40,7.5,34.5,7.8,81.8,21.8,108.5,45.5s18.4,20.9,28,31c21.4,22.8,43,34.8,60.9,62.1,18.7,28.5,30.5,54,37.3,87.7,2.4,12.1,3.6,24.3,6.3,36.2v20c-2.7,6.1-4.2,12.6-6.8,18.7-5.3,12.3-14,23.6-19,36-9.9,24.3-3.1,50.6-12.1,74.9-8.8,23.7-59.2,72.2-79.5,90.5-37.7,34.1-77.2,37.6-124.3,50.7l-39.2,7.3h-18c-8.5-2.6-17.4-4.1-26-6.5-12.3-3.4-24.2-8.2-36.6-11.4-26.6-6.9-48.1-8.4-73.1-21.9-47.9-25.8-80.9-59.2-101.8-110.2-8.5-20.6-6.7-41.1-12-62s-11.2-27.2-16.3-40.7-4.4-15-7.3-22.2v-19c2.9-7.4,4.2-15.2,6.7-22.8,4.3-12.9,10.2-25.1,13.8-38.2,10-36.6,6.6-57.8,32.5-89.5,29.8-36.4,65.3-61.4,106.3-83.7C196.7,19.5,235.1,7.6,277,0h14Z"/>
  </g>
</svg>