<?xml version="1.0" encoding="UTF-8"?>

<svg id="Layer_1" xmlns="http://www.w3.org/2000/svg" viewBox="0 0 1156.67 100.19">
  <title>Arman Adhitama</title>

  <defs>
    <style>
      .outline{fill:#555;}
      .mask{fill:none;stroke:#fff;stroke-linecap:round;stroke-linejoin:round;stroke-width:13px;}
    </style>

    <g id="arman-adhitama-masks">
      <mask id="mmask-arman-a">
        <path id="mask-arman-a" class="mask" d="M54.85,59.3s.97-7.55-4.18-9.61c-15-6-52.5,26.5-42.5,38.5s45-25,45-25c0,0-11,20-4,25s26,5,60-28"/>
      </mask>

      <mask id="mmask-arman-r">
        <path id="mask-arman-r" class="mask" d="M58.67,90.69s18.5,1.5,52-32c2-2,19-26,19-26,0,0-39,27,4,25-20,15-27.6,25.77-20,31,13.5,9.29,61.22-23.44,61.22-23.44"/>
      </mask>

      <mask id="mmask-arman-m">
        <path id="mask-arman-m" class="mask" d="M192.67,51.69s-21,12-35,42c0,0,36-37,45-30s-2,21-2,21l19-18s0,49,56,3"/>
      </mask>

      <mask id="mmask-arman-a2">
        <path id="mask-arman-a2" class="mask" d="M318.85,59.3s.97-7.55-4.18-9.61c-15-6-52.5,26.5-42.5,38.5s45-25,45-25c0,0-11,20-4,25s26,5,60-28"/>
      </mask>

      <mask id="mmask-arman-n">
        <path id="mask-arman-n" class="mask" d="M385.14,50.91s-16.46,9.77-32.46,38.77c21-20,32-26,37-26s2,18,10,25,32-8,55-28"/>
      </mask>

      <mask id="mmask-adhitama-a">
        <path id="mask-adhitama-a" class="mask" d="M524.85,59.3s.97-7.55-4.18-9.61c-15-6-52.5,26.5-42.5,38.5s45-25,45-25c0,0-11,20-4,25s26,5,60-28"/>
      </mask>

      <mask id="mmask-adhitama-d">
        <path id="mask-adhitama-d" class="mask" d="M610.67,59.69s1-13-14-12-37,29-28,39,52-39,74-59c8,1,7,6,7,6,0,0-59,35-46,55,7,11,40-9,52-20"/>
      </mask>

      <mask id="mmask-adhitama-h">
        <path id="mask-adhitama-h" class="mask" d="M656.07,61.34s51.61-22.65,61.61-54.65c-18-3-53,30-65,83,19-20,45-39,45-39,0,0-25.13,82.71,62.93,12.86"/>
      </mask>

      <mask id="mmask-adhitama-i">
        <path id="mask-adhitama-i" class="mask" d="M770.67,56.69s-28,19-19,31,44.65-12.29,56.83-24.14"/>
      </mask>

      <mask id="mmask-adhitama-t">
        <path id="mask-adhitama-t" class="mask" d="M847.67,28.69s-61,46-47,61,56.83-18.13,64.41-22.56"/>
      </mask>

      <mask id="mmask-adhitama-a2">
        <path id="mask-adhitama-a2" class="mask" d="M903.85,59.3s.97-7.55-4.18-9.61c-15-6-52.5,26.5-42.5,38.5s45-25,45-25c0,0-11,20-4,25s26,5,60-28"/>
      </mask>

      <mask id="mmask-adhitama-m">
        <path id="mask-adhitama-m" class="mask" d="M970.67,51.69s-21,12-35,42c0,0,36-37,45-30s-2,21-2,21l19-18s0,49,56,3"/>
      </mask>

      <mask id="mmask-adhitama-a3">
        <path id="mask-adhitama-a3" class="mask" d="M1095.85,59.3s.97-7.55-4.18-9.61c-15-6-52.5,26.5-42.5,38.5s45-25,45-25c0,0-11,20-4,25s26,5,60-28"/>
      </mask>

      <mask id="mmask-adhitama-i-dot">
        <path id="mask-adhitama-i-dot" class="mask" d="M776.67,43.69s2-5,13-7"/>
      </mask>

      <mask id="mmask-adhitama-t-strike">
        <path id="mask-adhitama-t-strike" class="mask" d="M805.67,49.69s10,6,42,0"/>
      </mask>
    </g>
  </defs>

  <g id="arman-adhitama">
    <path id="arman-a" class="outline" mask="url(#mmask-arman-a)" d="M56.94,93c-3.1,0-5.92-.8-8.45-2.4-2.53-1.6-3.8-4.52-3.8-8.76,0-1.55.21-3.18.62-4.88.41-1.71.88-3.38,1.4-5.04-1.76,1.76-3.93,3.8-6.51,6.12-2.58,2.32-5.4,4.57-8.45,6.74-3.05,2.17-6.1,3.95-9.15,5.35-3.05,1.39-5.92,2.09-8.6,2.09-3.31,0-5.99-1.19-8.06-3.56-1.45-1.55-2.17-3.62-2.17-6.2,0-2.89.95-6.02,2.87-9.38,1.91-3.36,4.44-6.66,7.59-9.92,3.15-3.25,6.56-6.12,10.23-8.6,3.67-2.48,7.26-4.29,10.77-5.42,4.86-1.55,8.73-2.32,11.62-2.32,3.31,0,5.68.85,7.13,2.56,1.45,1.7,2.38,4.06,2.79,7.05v.46c0,1.34-.46,2.38-1.39,3.1-.41.21-.72.31-.93.31-1.03,0-1.55-.77-1.55-2.32,0-.72-.16-1.73-.47-3.02-.31-1.29-1.34-1.99-3.1-2.09-2.38-.31-5.19.18-8.45,1.47-3.25,1.29-6.59,3.1-10,5.42-3.41,2.33-6.64,4.88-9.69,7.67-3.05,2.79-5.58,5.56-7.59,8.29-2.02,2.74-3.18,5.14-3.49,7.21-.1.31-.15.62-.15.93v.78c0,1.55.33,2.58,1.01,3.1.67.52,1.47.77,2.4.77,1.76,0,3.77-.54,6.04-1.63,2.27-1.08,4.42-2.3,6.43-3.64,2.02-1.34,3.43-2.38,4.26-3.1,3.2-2.69,6.84-5.66,10.93-8.91,4.08-3.25,7.72-6.28,10.93-9.07.52-.41,1.29-.62,2.33-.62,1.55,0,2.84.41,3.87,1.24.41.31.62.88.62,1.71,0,1.24-.46,2.79-1.4,4.65-1.65,3.51-3.05,6.66-4.18,9.46-1.14,2.79-1.71,5.06-1.71,6.82,0,2.48,1.45,3.72,4.34,3.72,2.27,0,5.94-.88,11-2.63,5.27-1.96,10.62-4.7,16.04-8.21,5.42-3.51,10.31-7.03,14.65-10.54.52-.52,1.03-.95,1.55-1.32.52-.36.98-.7,1.4-1.01.52-.41,1.01-.8,1.47-1.16.46-.36,1.01-.8,1.63-1.32.31-.1.67-.16,1.08-.16.83,0,1.24.36,1.24,1.08,0,.62-.26,1.19-.77,1.71-.62.83-2.12,2.32-4.49,4.49-2.38,2.17-5.3,4.6-8.76,7.29-3.46,2.69-7.23,5.25-11.31,7.67-4.08,2.43-8.19,4.37-12.32,5.81-1.55.52-3.33,1.01-5.35,1.47-2.02.46-4.01.7-5.97.7Z"/>
    <path id="arman-r" class="outline" mask="url(#mmask-arman-r)" d="M123.28,93.31c-3.31,0-6.38-.7-9.22-2.09-2.84-1.39-4.26-4-4.26-7.83,0-4.13,1.37-8.01,4.11-11.62,2.74-3.62,5.55-6.72,8.45-9.3l1.24-1.08c-1.34.31-2.69.47-4.03.47-3,0-5.53-.72-7.59-2.17l-.46.77c-.72,1.14-2.02,2.61-3.88,4.42-1.86,1.81-3.67,3.44-5.42,4.88-4.34,3.62-8.94,7.05-13.79,10.31-4.86,3.25-9.66,5.97-14.41,8.14s-9.25,3.36-13.48,3.56c-.31,0-.75-.05-1.32-.15-.57-.1-1.01-.26-1.32-.46-.21-.21-.31-.47-.31-.78,0-.52.21-.88.62-1.09.41-.21,1.34-.46,2.79-.77,3.51-.72,7.39-2.19,11.62-4.42,4.24-2.22,8.65-4.91,13.25-8.06,4.6-3.15,9.07-6.48,13.41-10,1.76-1.34,3.56-2.87,5.42-4.57s3.51-3.23,4.96-4.57c-.52-.83-.88-1.68-1.08-2.56-.21-.88-.31-1.78-.31-2.71,0-2.48.67-4.96,2.02-7.44,1.34-2.48,3.05-4.75,5.11-6.82,2.07-2.07,4.29-3.74,6.66-5.04,2.38-1.29,4.6-1.94,6.67-1.94,1.14,0,1.94.26,2.4.77.46.52.7,1.08.7,1.7,0,1.34-.46,2.38-1.4,3.1-.72.62-1.89,1.73-3.49,3.33s-3.33,3.41-5.19,5.42c-1.86,2.01-3.54,3.98-5.04,5.89-1.5,1.91-2.51,3.49-3.02,4.73.31.41.77.85,1.4,1.32.62.46,1.81.7,3.56.7,1.24,0,2.53-.21,3.87-.62,1.34-.41,2.64-.83,3.88-1.24,1.24-.41,2.38-.88,3.41-1.4.52-.21.98-.36,1.39-.46.41-.1.72-.16.93-.16,1.14,0,2.4.36,3.8,1.08,1.4.72,2.09,1.86,2.09,3.41,0,.52-.1,1.08-.31,1.71-.21.62-.57,1.14-1.08,1.55-1.65,1.24-3.85,2.97-6.59,5.19-2.74,2.22-5.35,4.57-7.83,7.05-2.58,2.58-4.44,4.86-5.58,6.82-1.14,1.96-1.71,3.56-1.71,4.8,0,1.34.59,2.43,1.78,3.25,1.19.83,3.07,1.24,5.66,1.24,3.62,0,8.37-1.08,14.26-3.25,1.45-.52,2.84-1.08,4.19-1.7,5.79-2.69,11.34-5.91,16.66-9.69,5.32-3.77,10.62-7.88,15.89-12.32.31-.1.67-.16,1.08-.16.72,0,1.08.36,1.08,1.08,0,.52-.21,1.08-.62,1.71-.62.93-2.12,2.48-4.49,4.65-2.38,2.17-5.3,4.6-8.76,7.28-3.46,2.69-7.23,5.27-11.31,7.75-4.08,2.48-8.19,4.45-12.32,5.89-1.76.62-3.98,1.19-6.66,1.71-2.69.52-5.37.78-8.06.78Z"/>
    <path id="arman-m" class="outline" mask="url(#mmask-arman-m)" d="M157.53,96.09c-2.89,0-4.08-.93-3.56-2.79.1-.62.36-1.19.77-1.71l.46-.62c.1-.21.16-.36.16-.46.83-1.86,2.27-4.42,4.34-7.67,2.07-3.25,4.49-6.77,7.28-10.54,2.79-3.77,5.66-7.36,8.6-10.77,2.94-3.41,5.71-6.2,8.29-8.37,2.58-2.17,4.7-3.25,6.35-3.25.52,0,1.45.34,2.79,1.01,1.34.67,2.38,1.22,3.1,1.63.72.41,1.08.98,1.08,1.71,0,.52-.18,1.01-.54,1.47-.36.46-.8.7-1.32.7-.21,0-.41-.02-.62-.08-.21-.05-.41-.02-.62.08-.21,0-.72.15-1.55.46-1.65.72-3.64,2.04-5.97,3.95-2.32,1.91-4.78,4.13-7.36,6.67-2.58,2.53-5.09,5.11-7.52,7.75-2.43,2.63-4.52,5.04-6.28,7.21,2.48-2.17,5.32-4.55,8.52-7.13,3.2-2.58,6.46-5.01,9.76-7.28,3.31-2.27,6.35-4.16,9.14-5.66,2.79-1.5,5.01-2.25,6.67-2.25,1.86,0,3.72.75,5.58,2.25,1.86,1.5,2.79,3.13,2.79,4.88,0,1.34-.18,2.79-.54,4.34-.36,1.55-.8,3.05-1.32,4.49-.1.62-.26,1.24-.47,1.86-.21.62-.41,1.19-.62,1.71,1.14-1.34,2.32-2.84,3.56-4.49,1.34-1.65,2.71-3.31,4.11-4.96,1.4-1.65,2.71-3,3.95-4.03,2.89-2.38,5.01-3.2,6.35-2.48.62.41,1.06.96,1.32,1.63.26.67.44,1.32.54,1.94.21.93.44,2.12.7,3.56.26,1.45.59,3.05,1.01,4.8.52,1.65,1.21,3.28,2.09,4.88.88,1.6,1.99,3.02,3.33,4.26,1.34,1.03,3.25,1.55,5.73,1.55,1.96,0,4.08-.31,6.35-.93,2.27-.62,4.29-1.34,6.04-2.17,4.24-2.07,8.39-4.5,12.48-7.28,4.08-2.79,8.19-5.94,12.32-9.46l9.61-7.9c.83-.62,1.5-.9,2.01-.85.52.05.83.18.93.39v.31c0,.21-.05.52-.16.93-.1.41-.36.88-.77,1.4-.72,1.03-1.81,2.38-3.25,4.03-1.45,1.65-3.25,3.36-5.42,5.11-2.38,1.96-5.22,4.21-8.52,6.74-3.31,2.53-6.8,4.94-10.46,7.21-3.67,2.27-7.36,4.13-11.08,5.58-1.96.72-3.88,1.34-5.73,1.86s-3.67.78-5.42.78c-4.03,0-7.21-.9-9.53-2.71-2.32-1.81-4.16-3.9-5.5-6.28-.62-1.24-1.16-2.5-1.63-3.8-.47-1.29-.85-2.45-1.16-3.49-.21-.83-.39-1.63-.54-2.4-.16-.77-.34-1.47-.54-2.09-1.14,1.03-2.27,2.25-3.41,3.64-1.14,1.39-2.27,2.82-3.41,4.26-1.24,1.65-2.38,3.18-3.41,4.57-1.03,1.4-1.86,2.51-2.48,3.33-1.14,1.45-2.53,2.17-4.19,2.17-1.03,0-1.91-.33-2.63-1.01-.72-.67-1.08-1.68-1.08-3.02,0-1.86.54-4.31,1.63-7.36,1.08-3.05,1.83-5.86,2.25-8.45,0-.21.02-.44.08-.7.05-.26.08-.49.08-.7,0-1.34-.26-2.19-.77-2.56-.52-.36-1.08-.54-1.71-.54-1.03,0-2.3.34-3.8,1.01-1.5.67-2.82,1.37-3.95,2.09-1.03.62-2.64,1.81-4.81,3.57-2.17,1.76-4.57,3.77-7.21,6.04-2.63,2.27-5.25,4.6-7.83,6.98-1.65,1.55-3.18,3-4.57,4.34-1.4,1.34-2.66,2.53-3.8,3.56-2.58,2.38-4.29,3.56-5.11,3.56Z"/>
    <path id="arman-a2" class="outline" mask="url(#mmask-arman-a2)" d="M319.65,93c-3.1,0-5.92-.8-8.45-2.4-2.53-1.6-3.8-4.52-3.8-8.76,0-1.55.21-3.18.62-4.88.41-1.71.88-3.38,1.4-5.04-1.76,1.76-3.93,3.8-6.51,6.12-2.58,2.32-5.4,4.57-8.45,6.74-3.05,2.17-6.1,3.95-9.15,5.35-3.05,1.39-5.92,2.09-8.6,2.09-3.31,0-5.99-1.19-8.06-3.56-1.45-1.55-2.17-3.62-2.17-6.2,0-2.89.95-6.02,2.87-9.38,1.91-3.36,4.44-6.66,7.59-9.92,3.15-3.25,6.56-6.12,10.23-8.6,3.67-2.48,7.26-4.29,10.77-5.42,4.86-1.55,8.73-2.32,11.62-2.32,3.31,0,5.68.85,7.13,2.56,1.45,1.7,2.38,4.06,2.79,7.05v.46c0,1.34-.46,2.38-1.39,3.1-.41.21-.72.31-.93.31-1.03,0-1.55-.77-1.55-2.32,0-.72-.16-1.73-.47-3.02-.31-1.29-1.34-1.99-3.1-2.09-2.38-.31-5.19.18-8.45,1.47-3.25,1.29-6.59,3.1-10,5.42-3.41,2.33-6.64,4.88-9.69,7.67-3.05,2.79-5.58,5.56-7.59,8.29-2.02,2.74-3.18,5.14-3.49,7.21-.1.31-.15.62-.15.93v.78c0,1.55.33,2.58,1.01,3.1.67.52,1.47.77,2.4.77,1.76,0,3.77-.54,6.04-1.63,2.27-1.08,4.42-2.3,6.43-3.64,2.02-1.34,3.43-2.38,4.26-3.1,3.2-2.69,6.84-5.66,10.93-8.91,4.08-3.25,7.72-6.28,10.93-9.07.52-.41,1.29-.62,2.33-.62,1.55,0,2.84.41,3.87,1.24.41.31.62.88.62,1.71,0,1.24-.46,2.79-1.4,4.65-1.65,3.51-3.05,6.66-4.18,9.46-1.14,2.79-1.71,5.06-1.71,6.82,0,2.48,1.45,3.72,4.34,3.72,2.27,0,5.94-.88,11-2.63,5.27-1.96,10.62-4.7,16.04-8.21,5.42-3.51,10.31-7.03,14.65-10.54.52-.52,1.03-.95,1.55-1.32.52-.36.98-.7,1.4-1.01.52-.41,1.01-.8,1.47-1.16.46-.36,1.01-.8,1.63-1.32.31-.1.67-.16,1.08-.16.83,0,1.24.36,1.24,1.08,0,.62-.26,1.19-.77,1.71-.62.83-2.12,2.32-4.49,4.49-2.38,2.17-5.3,4.6-8.76,7.29-3.46,2.69-7.23,5.25-11.31,7.67-4.08,2.43-8.19,4.37-12.32,5.81-1.55.52-3.33,1.01-5.35,1.47-2.02.46-4.01.7-5.97.7Z"/>
    <path id="arman-n" class="outline" mask="url(#mmask-arman-n)" d="M352.98,92.53c-.83,0-1.42-.26-1.78-.78-.36-.52-.54-1.14-.54-1.86,0-1.14.26-2.22.77-3.26.52-1.03.83-1.71.93-2.01.83-1.65,2.12-3.9,3.87-6.74,1.76-2.84,3.8-5.86,6.12-9.07,2.32-3.2,4.73-6.22,7.21-9.07,2.48-2.84,4.83-5.19,7.05-7.05,2.22-1.86,4.16-2.79,5.81-2.79.41,0,1.32.34,2.71,1.01,1.4.67,2.4,1.22,3.02,1.63.72.41,1.08,1.03,1.08,1.86,0,1.24-.57,1.86-1.71,1.86-.62,0-1.03.05-1.24.16-.21,0-.72.15-1.55.46-1.76.72-3.95,2.25-6.59,4.57-2.63,2.32-5.32,4.99-8.06,7.98-2.74,3-5.19,5.84-7.36,8.52,3.2-2.79,6.84-5.58,10.93-8.37,4.08-2.79,7.93-4.91,11.55-6.35,1.24-.52,2.4-.9,3.49-1.16,1.08-.26,2.09-.39,3.02-.39,3.2,0,5.32,1.19,6.35,3.56,1.03,2.38,1.71,4.75,2.02,7.13.21.93.33,1.86.39,2.79.05.93.13,1.81.23,2.63.41,3.82,1.19,6.35,2.33,7.59,1.14,1.24,2.53,1.86,4.18,1.86,1.34,0,2.89-.28,4.65-.85,1.76-.57,3.67-1.37,5.73-2.4,4.24-2.07,8.63-4.67,13.17-7.83,4.55-3.15,8.89-6.43,13.02-9.84l9.61-7.75c.83-.62,1.5-.93,2.02-.93s.83.1.93.31v.31c0,.21-.05.54-.16,1.01-.1.46-.31.96-.62,1.47-.72,1.03-1.81,2.38-3.25,4.03-1.45,1.65-3.31,3.36-5.58,5.11-2.69,2.17-5.76,4.57-9.22,7.21-3.46,2.63-7.08,5.11-10.85,7.44-3.77,2.32-7.52,4.24-11.24,5.73-3.72,1.5-7.28,2.25-10.69,2.25s-5.92-.96-7.52-2.87c-1.6-1.91-2.69-4.24-3.25-6.97-.57-2.74-1.11-5.29-1.63-7.67-.1-.72-.26-1.4-.46-2.01-.21-.62-.41-1.19-.62-1.71-.93-2.27-2.32-3.41-4.18-3.41-1.24,0-2.69.34-4.34,1.01-1.65.67-3.72,1.84-6.2,3.49-3.2,2.17-6.1,4.37-8.68,6.59-2.58,2.22-4.91,4.37-6.97,6.43-.62.52-1.27,1.16-1.94,1.94-.67.77-1.37,1.53-2.09,2.25l-1.86,1.86c-.41.41-.83.78-1.24,1.09h-.77Z"/>
    <path id="adhitama-a" class="outline" mask="url(#mmask-adhitama-a)" d="M524.71,93c-3.1,0-5.92-.8-8.45-2.4-2.53-1.6-3.8-4.52-3.8-8.76,0-1.55.21-3.18.62-4.88.41-1.71.88-3.38,1.39-5.04-1.76,1.76-3.93,3.8-6.51,6.12-2.58,2.32-5.4,4.57-8.45,6.74-3.05,2.17-6.1,3.95-9.14,5.35-3.05,1.39-5.92,2.09-8.6,2.09-3.31,0-5.99-1.19-8.06-3.56-1.45-1.55-2.17-3.62-2.17-6.2,0-2.89.96-6.02,2.87-9.38,1.91-3.36,4.44-6.66,7.6-9.92,3.15-3.25,6.56-6.12,10.23-8.6,3.67-2.48,7.26-4.29,10.77-5.42,4.86-1.55,8.73-2.32,11.62-2.32,3.31,0,5.68.85,7.13,2.56,1.45,1.7,2.38,4.06,2.79,7.05v.46c0,1.34-.46,2.38-1.39,3.1-.41.21-.72.31-.93.31-1.04,0-1.55-.77-1.55-2.32,0-.72-.15-1.73-.46-3.02-.31-1.29-1.34-1.99-3.1-2.09-2.38-.31-5.19.18-8.45,1.47-3.25,1.29-6.59,3.1-10,5.42-3.41,2.33-6.64,4.88-9.69,7.67-3.05,2.79-5.58,5.56-7.6,8.29-2.01,2.74-3.18,5.14-3.49,7.21-.11.31-.16.62-.16.93v.78c0,1.55.33,2.58,1.01,3.1.67.52,1.47.77,2.4.77,1.76,0,3.77-.54,6.04-1.63,2.27-1.08,4.42-2.3,6.43-3.64,2.02-1.34,3.44-2.38,4.26-3.1,3.2-2.69,6.84-5.66,10.93-8.91,4.08-3.25,7.72-6.28,10.93-9.07.52-.41,1.29-.62,2.32-.62,1.55,0,2.84.41,3.88,1.24.41.31.62.88.62,1.71,0,1.24-.46,2.79-1.39,4.65-1.65,3.51-3.05,6.66-4.19,9.46-1.14,2.79-1.71,5.06-1.71,6.82,0,2.48,1.45,3.72,4.34,3.72,2.27,0,5.94-.88,11-2.63,5.27-1.96,10.62-4.7,16.04-8.21,5.42-3.51,10.31-7.03,14.65-10.54.52-.52,1.03-.95,1.55-1.32.52-.36.98-.7,1.39-1.01.52-.41,1.01-.8,1.47-1.16.46-.36,1.01-.8,1.63-1.32.31-.1.67-.16,1.08-.16.83,0,1.24.36,1.24,1.08,0,.62-.26,1.19-.77,1.71-.62.83-2.12,2.32-4.5,4.49s-5.3,4.6-8.76,7.29c-3.46,2.69-7.23,5.25-11.32,7.67-4.08,2.43-8.19,4.37-12.32,5.81-1.55.52-3.33,1.01-5.35,1.47-2.02.46-4.01.7-5.97.7Z"/>
    <path id="adhitama-d" class="outline" mask="url(#mmask-adhitama-d)" d="M611.04,93.61c-4.55.31-7.75-.6-9.61-2.71-1.86-2.12-2.79-4.73-2.79-7.83,0-2.27.36-4.6,1.08-6.97.72-2.38,1.6-4.7,2.63-6.97-1.65,1.65-3.72,3.67-6.2,6.04-2.48,2.38-5.12,4.7-7.91,6.97-2.79,2.27-5.5,4.16-8.14,5.66-2.63,1.5-4.94,2.25-6.9,2.25-1.45,0-2.82-.36-4.11-1.08-1.29-.72-2.4-1.6-3.33-2.64-1.65-1.76-2.48-3.98-2.48-6.67,0-2.89.93-5.99,2.79-9.3,1.86-3.31,4.24-6.51,7.13-9.61,2.89-3.1,5.94-5.86,9.14-8.29,3.2-2.43,6.2-4.21,8.99-5.35,2.48-.93,4.91-1.4,7.28-1.4,3.51,0,6.56.88,9.14,2.63,1.14.72,2.07,1.58,2.79,2.56.72.98,1.08,2.15,1.08,3.49v.46c2.17-2.48,4.31-4.93,6.43-7.36,2.12-2.43,4.26-4.78,6.43-7.05,2.48-2.69,5.09-5.37,7.83-8.06,2.74-2.69,5.71-5.22,8.91-7.59,1.65-1.14,3.05-1.71,4.18-1.71.72,0,1.34.21,1.86.62,1.14.62,2.17,1.73,3.1,3.33.93,1.6,1.39,3.13,1.39,4.57,0,.93-.21,1.65-.62,2.17-.52.72-1.03,1.08-1.55,1.08s-.93-.41-1.24-1.24c-.1-.21-.16-.47-.16-.78-.1-.62-.52-.93-1.24-.93-.83,0-1.84.36-3.02,1.08-1.19.72-1.99,1.24-2.4,1.55-3,1.96-6.04,4.39-9.14,7.28-3.1,2.89-6.1,5.99-8.99,9.3-1.34,1.55-2.69,3.13-4.03,4.73-1.34,1.6-2.58,3.23-3.72,4.88-.93,1.24-2.2,3.18-3.8,5.81-1.6,2.63-3.02,5.45-4.26,8.45-1.24,3-1.86,5.68-1.86,8.06,0,1.65.44,3,1.32,4.03.88,1.04,2.45,1.55,4.73,1.55,4.86,0,9.53-1.14,14.03-3.41,4.49-2.27,8.76-4.7,12.79-7.29,7.54-4.86,14.83-10.23,21.85-16.12.41-.41.83-.62,1.24-.62h.16c.62,0,.93.31.93.93v.31c0,.62-.26,1.19-.78,1.71-1.03,1.34-3.46,3.77-7.28,7.28-3.82,3.51-8.52,7.13-14.1,10.85-4.75,3.21-9.43,5.76-14.03,7.67-4.6,1.91-9.79,3.12-15.58,3.64ZM571.05,86.18c1.65,0,3.67-.77,6.04-2.32,5.79-3.51,11.42-7.54,16.89-12.09,5.48-4.55,10.59-9.35,15.34-14.41-.62-.1-1.14-.67-1.55-1.71-.52-1.14-1.24-2.27-2.17-3.41-.93-1.14-2.43-1.71-4.49-1.71-3.1,0-6.41,1.03-9.92,3.1-3.51,2.07-6.87,4.68-10.07,7.83-3.2,3.15-5.92,6.46-8.14,9.92-2.22,3.46-3.54,6.54-3.95,9.22-.1.42-.16.8-.16,1.16v1.01c0,1.45.23,2.38.7,2.79.47.41.95.62,1.47.62Z"/>
    <path id="adhitama-h" class="outline" mask="url(#mmask-adhitama-h)" d="M707.44,93.93c-4.44,0-7.98-1.06-10.62-3.18-2.63-2.12-4.55-4.88-5.73-8.29-1.19-3.41-1.78-7.08-1.78-11.01s.57-8.32,1.71-12.86c-2.48,2.27-5.45,4.94-8.91,7.98-3.46,3.05-6.97,6.07-10.54,9.07-3.57,3-6.74,5.63-9.53,7.9-2.79,2.27-4.75,3.82-5.89,4.65.31.62.46,1.19.46,1.71,0,.93-.31,1.65-.93,2.17-.62.52-1.34.77-2.17.77-.93,0-1.89-.29-2.87-.85-.98-.57-1.78-1.47-2.4-2.71-.31-.83-.46-1.81-.46-2.94,0-2.89.88-6.48,2.63-10.77,1.76-4.29,3.88-8.65,6.35-13.1-1.24,0-1.86-.41-1.86-1.24,0-.62.46-1.29,1.39-2.02,2.27-1.34,3.57-2.43,3.88-3.25,2.17-4.44,4.8-9.07,7.91-13.87,3.1-4.8,6.48-9.48,10.15-14.03,3.67-4.55,7.44-8.65,11.32-12.32,3.87-3.67,7.72-6.59,11.55-8.76,3.82-2.17,7.49-3.25,11-3.25,2.38,0,4.08.54,5.12,1.63,1.03,1.08,1.55,2.4,1.55,3.95,0,1.24-.26,2.51-.77,3.8-.52,1.29-1.08,2.46-1.71,3.49-3.1,5.48-7.44,10.88-13.02,16.2-5.58,5.32-11.76,10.28-18.52,14.88-6.77,4.6-13.56,8.66-20.38,12.17-2.58,4.86-4.73,9.48-6.43,13.87-1.71,4.39-2.61,7.62-2.71,9.69,1.34-1.14,3.51-2.97,6.51-5.5,3-2.53,6.25-5.4,9.76-8.6,4.13-3.62,8.27-7.23,12.4-10.85,4.13-3.62,7.49-6.56,10.08-8.83.52-1.45,1.14-2.64,1.86-3.56.72-.93,1.55-1.4,2.48-1.4.83,0,1.68.46,2.56,1.4.88.93,1.78,2.12,2.71,3.56.21.41.31.93.31,1.55,0,1.65-.31,2.89-.93,3.72-2.07,3.2-3.64,6.56-4.73,10.07-1.08,3.51-1.63,6.82-1.63,9.92,0,4.13,1.01,7.6,3.02,10.38,2.01,2.79,5.19,4.19,9.53,4.19s9.87-1.76,16.89-5.27c4.44-2.27,8.94-4.91,13.48-7.91,4.55-3,8.73-5.99,12.55-8.99.52-.52,1.06-.93,1.63-1.24.57-.31,1.06-.67,1.47-1.08.72-.52,1.76-1.34,3.1-2.48.31-.1.67-.15,1.08-.15.83,0,1.24.41,1.24,1.24,0,.52-.26,1.03-.78,1.55-.62.83-2.01,2.2-4.18,4.11-2.17,1.91-4.83,4.08-7.98,6.51-3.15,2.43-6.56,4.83-10.23,7.21-3.67,2.38-7.31,4.44-10.93,6.2-2.07,1.03-4.88,2.09-8.45,3.18-3.56,1.08-7.11,1.63-10.62,1.63ZM667.76,53.63c5.48-3.31,11.13-7.1,16.97-11.39,5.84-4.29,11.29-8.99,16.35-14.1,5.06-5.11,9.09-10.56,12.09-16.35.21-.52.44-1.03.7-1.55.26-.52.39-.93.39-1.24,0-.83-.67-1.08-2.01-.77-1.96.72-4.34,2.02-7.13,3.88-2.89,1.96-5.84,4.26-8.83,6.9-3,2.63-5.48,4.99-7.44,7.05-1.24,1.34-2.48,2.69-3.72,4.03-1.24,1.34-2.53,2.74-3.88,4.18-1.24,1.45-2.51,3-3.8,4.65-1.29,1.65-2.61,3.41-3.95,5.27-.93,1.34-1.89,2.82-2.87,4.42-.98,1.6-1.94,3.28-2.87,5.04Z"/>
    <path id="adhitama-i" class="outline" mask="url(#mmask-adhitama-i)" d="M757.82,92.53c-2.89,0-5.5-.57-7.83-1.71-2.32-1.14-3.49-3.31-3.49-6.51s.78-6.1,2.33-8.99c1.55-2.89,3.38-5.5,5.5-7.83,2.12-2.33,3.9-4.16,5.35-5.5-.1-.1-.16-.36-.16-.77,0-.83.36-1.65,1.08-2.48.52-.72,1.26-1.47,2.25-2.25.98-.77,2.09-1.37,3.33-1.78.62-.21,1.24-.31,1.86-.31,1.24,0,2.56.29,3.95.85,1.39.57,2.09,1.47,2.09,2.71,0,.72-.26,1.4-.77,2.01-.52.62-.98,1.03-1.4,1.24-1.65,1.24-3.9,3.15-6.74,5.73-2.84,2.58-5.25,5.06-7.21,7.44-3.62,4.65-5.42,8.16-5.42,10.54,0,1.04.44,1.89,1.32,2.56.88.67,2.45,1.01,4.73,1.01,3.62,0,7.21-.59,10.77-1.78,3.56-1.19,6.84-2.56,9.84-4.11,2.48-1.24,4.83-2.63,7.05-4.19,2.22-1.55,4.42-3.15,6.59-4.8,2.17-1.76,4.36-3.54,6.59-5.35,2.22-1.81,4.47-3.64,6.74-5.5.62-.21,1.03-.31,1.24-.31.72,0,1.08.36,1.08,1.08,0,.52-.26,1.14-.78,1.86-.62.83-1.91,2.17-3.88,4.03-1.96,1.86-4.37,3.95-7.21,6.28-2.84,2.33-6.02,4.63-9.53,6.9-3.51,2.27-7.13,4.24-10.85,5.89-1.96.93-4.7,1.84-8.21,2.71-3.51.88-6.92,1.32-10.23,1.32ZM778.43,45.57c-1.24,0-2.12-.33-2.63-1.01-.52-.67-.77-1.52-.77-2.56,0-1.14.21-2.12.62-2.94.31-.83,1.4-1.55,3.25-2.17,1.86-.62,3.85-1.08,5.97-1.4,2.12-.31,3.74-.47,4.88-.47s1.71.26,1.71.78c0,.21-.08.41-.23.62-.15.21-.29.36-.39.47-.21.1-.49.26-.85.46-.36.21-.8.41-1.32.62-.72.31-1.53.7-2.4,1.16-.88.47-1.47,1.01-1.78,1.63-.52,1.34-1.34,2.48-2.48,3.41-1.14.93-2.33,1.4-3.57,1.4Z"/>
    <path id="adhitama-t" class="outline" mask="url(#mmask-adhitama-t)" d="M809.12,94.85c-3.51,0-6.67-.7-9.46-2.09s-4.18-4.16-4.18-8.29,1.83-8.76,5.5-13.87c3.67-5.12,7.98-10.2,12.94-15.27-2.17,0-4.29-.16-6.36-.47-1.45-.31-2.56-.9-3.33-1.78-.77-.88-1.16-1.83-1.16-2.87,0-1.14.41-2.01,1.24-2.63.83-.62,1.86-.83,3.1-.62,1.96.31,4.08.6,6.35.85,2.27.26,4.7.49,7.29.7,2.79-2.69,5.53-5.19,8.21-7.52,2.69-2.32,5.17-4.47,7.44-6.43-.41-1.14.02-2.53,1.32-4.18,1.29-1.65,3.07-3,5.35-4.03.62-.21,1.19-.31,1.71-.31,1.45,0,2.92.31,4.42.93,1.5.62,2.25,1.45,2.25,2.48,0,.72-.62,1.76-1.86,3.1-1.24,1.34-2.12,2.17-2.63,2.48-1.55,1.03-3.93,2.77-7.13,5.19-3.2,2.43-6.66,5.3-10.38,8.6,4.86,0,8.81-.05,11.86-.16,3.05-.1,5.81-.26,8.29-.46h.31c.72,0,1.08.36,1.08,1.08,0,1.14-.57,1.76-1.71,1.86-3.62.1-7.75.6-12.4,1.47-4.65.88-9.25,1.58-13.79,2.09-3.72,3.51-7.21,7.11-10.46,10.77-3.25,3.67-5.89,7.11-7.9,10.31-2.02,3.21-3.02,5.94-3.02,8.21,0,3.93,3.25,5.89,9.76,5.89,4.65,0,10.23-1.14,16.74-3.41.62-.31,1.26-.59,1.94-.85.67-.26,1.37-.54,2.09-.85,4.65-2.07,9.25-4.67,13.79-7.83,4.55-3.15,8.73-6.33,12.55-9.53.52-.52,1.03-.93,1.55-1.24.52-.31.98-.67,1.39-1.08.72-.52,1.76-1.34,3.1-2.48.31-.1.67-.16,1.08-.16.72,0,1.08.36,1.08,1.08,0,.52-.21,1.08-.62,1.71-.62.93-2.12,2.48-4.5,4.65-2.38,2.17-5.27,4.6-8.68,7.28-3.41,2.69-7.16,5.27-11.24,7.75-4.08,2.48-8.14,4.45-12.17,5.89-2.07.72-5.06,1.57-8.99,2.56-3.93.98-7.85,1.47-11.78,1.47Z"/>
    <path id="adhitama-a2" class="outline" mask="url(#mmask-adhitama-a2)" d="M904.75,93c-3.1,0-5.92-.8-8.45-2.4-2.53-1.6-3.8-4.52-3.8-8.76,0-1.55.21-3.18.62-4.88.41-1.71.88-3.38,1.39-5.04-1.76,1.76-3.93,3.8-6.51,6.12-2.58,2.32-5.4,4.57-8.45,6.74-3.05,2.17-6.1,3.95-9.14,5.35-3.05,1.39-5.92,2.09-8.6,2.09-3.31,0-5.99-1.19-8.06-3.56-1.45-1.55-2.17-3.62-2.17-6.2,0-2.89.96-6.02,2.87-9.38,1.91-3.36,4.44-6.66,7.59-9.92,3.15-3.25,6.56-6.12,10.23-8.6,3.67-2.48,7.26-4.29,10.77-5.42,4.86-1.55,8.73-2.32,11.62-2.32,3.31,0,5.68.85,7.13,2.56,1.45,1.7,2.38,4.06,2.79,7.05v.46c0,1.34-.46,2.38-1.4,3.1-.41.21-.72.31-.93.31-1.03,0-1.55-.77-1.55-2.32,0-.72-.16-1.73-.46-3.02-.31-1.29-1.34-1.99-3.1-2.09-2.38-.31-5.19.18-8.45,1.47-3.25,1.29-6.59,3.1-10,5.42-3.41,2.33-6.64,4.88-9.69,7.67-3.05,2.79-5.58,5.56-7.59,8.29-2.01,2.74-3.18,5.14-3.49,7.21-.1.31-.16.62-.16.93v.78c0,1.55.33,2.58,1.01,3.1.67.52,1.47.77,2.4.77,1.76,0,3.77-.54,6.04-1.63,2.27-1.08,4.42-2.3,6.43-3.64,2.02-1.34,3.43-2.38,4.26-3.1,3.2-2.69,6.84-5.66,10.93-8.91,4.08-3.25,7.72-6.28,10.93-9.07.52-.41,1.29-.62,2.32-.62,1.55,0,2.84.41,3.88,1.24.41.31.62.88.62,1.71,0,1.24-.46,2.79-1.39,4.65-1.65,3.51-3.05,6.66-4.19,9.46-1.14,2.79-1.71,5.06-1.71,6.82,0,2.48,1.45,3.72,4.34,3.72,2.27,0,5.94-.88,11-2.63,5.27-1.96,10.62-4.7,16.04-8.21,5.42-3.51,10.31-7.03,14.65-10.54.52-.52,1.03-.95,1.55-1.32.52-.36.98-.7,1.39-1.01.52-.41,1.01-.8,1.47-1.16.46-.36,1.01-.8,1.63-1.32.31-.1.67-.16,1.08-.16.83,0,1.24.36,1.24,1.08,0,.62-.26,1.19-.77,1.71-.62.83-2.12,2.32-4.5,4.49-2.38,2.17-5.3,4.6-8.76,7.29-3.46,2.69-7.23,5.25-11.32,7.67-4.08,2.43-8.19,4.37-12.32,5.81-1.55.52-3.33,1.01-5.35,1.47s-4.01.7-5.97.7Z"/>
    <path id="adhitama-m" class="outline" mask="url(#mmask-adhitama-m)" d="M935.28,96.09c-2.89,0-4.08-.93-3.56-2.79.1-.62.36-1.19.77-1.71l.47-.62c.1-.21.15-.36.15-.46.83-1.86,2.27-4.42,4.34-7.67,2.07-3.25,4.5-6.77,7.29-10.54,2.79-3.77,5.66-7.36,8.6-10.77,2.94-3.41,5.71-6.2,8.29-8.37,2.58-2.17,4.7-3.25,6.35-3.25.52,0,1.45.34,2.79,1.01,1.34.67,2.38,1.22,3.1,1.63.72.41,1.08.98,1.08,1.71,0,.52-.18,1.01-.54,1.47-.36.46-.8.7-1.32.7-.21,0-.41-.02-.62-.08-.21-.05-.41-.02-.62.08-.21,0-.72.15-1.55.46-1.65.72-3.64,2.04-5.97,3.95-2.32,1.91-4.78,4.13-7.36,6.67-2.58,2.53-5.09,5.11-7.52,7.75-2.43,2.63-4.52,5.04-6.28,7.21,2.48-2.17,5.32-4.55,8.52-7.13,3.2-2.58,6.46-5.01,9.76-7.28,3.31-2.27,6.35-4.16,9.14-5.66,2.79-1.5,5.01-2.25,6.67-2.25,1.86,0,3.72.75,5.58,2.25,1.86,1.5,2.79,3.13,2.79,4.88,0,1.34-.18,2.79-.54,4.34-.36,1.55-.8,3.05-1.32,4.49-.1.62-.26,1.24-.46,1.86-.21.62-.41,1.19-.62,1.71,1.14-1.34,2.33-2.84,3.56-4.49,1.34-1.65,2.71-3.31,4.11-4.96,1.4-1.65,2.71-3,3.95-4.03,2.89-2.38,5.01-3.2,6.36-2.48.62.41,1.06.96,1.32,1.63.26.67.44,1.32.54,1.94.21.93.44,2.12.7,3.56.26,1.45.59,3.05,1.01,4.8.52,1.65,1.21,3.28,2.09,4.88.88,1.6,1.99,3.02,3.33,4.26,1.34,1.03,3.25,1.55,5.74,1.55,1.96,0,4.08-.31,6.35-.93,2.27-.62,4.29-1.34,6.04-2.17,4.24-2.07,8.39-4.5,12.48-7.28,4.08-2.79,8.19-5.94,12.32-9.46l9.61-7.9c.83-.62,1.5-.9,2.02-.85.52.05.83.18.93.39v.31c0,.21-.05.52-.16.93-.1.41-.36.88-.77,1.4-.72,1.03-1.81,2.38-3.25,4.03-1.45,1.65-3.25,3.36-5.42,5.11-2.38,1.96-5.22,4.21-8.53,6.74-3.31,2.53-6.79,4.94-10.46,7.21-3.67,2.27-7.36,4.13-11.08,5.58-1.96.72-3.88,1.34-5.73,1.86-1.86.52-3.67.78-5.42.78-4.03,0-7.21-.9-9.53-2.71-2.33-1.81-4.16-3.9-5.5-6.28-.62-1.24-1.16-2.5-1.63-3.8-.46-1.29-.85-2.45-1.16-3.49-.21-.83-.39-1.63-.54-2.4-.16-.77-.34-1.47-.54-2.09-1.14,1.03-2.27,2.25-3.41,3.64-1.14,1.39-2.27,2.82-3.41,4.26-1.24,1.65-2.38,3.18-3.41,4.57-1.03,1.4-1.86,2.51-2.48,3.33-1.14,1.45-2.53,2.17-4.18,2.17-1.03,0-1.91-.33-2.64-1.01-.72-.67-1.08-1.68-1.08-3.02,0-1.86.54-4.31,1.63-7.36,1.08-3.05,1.83-5.86,2.25-8.45,0-.21.02-.44.08-.7.05-.26.08-.49.08-.7,0-1.34-.26-2.19-.78-2.56-.52-.36-1.08-.54-1.7-.54-1.03,0-2.3.34-3.8,1.01-1.5.67-2.82,1.37-3.95,2.09-1.03.62-2.63,1.81-4.8,3.57-2.17,1.76-4.57,3.77-7.21,6.04-2.64,2.27-5.25,4.6-7.83,6.98-1.65,1.55-3.18,3-4.57,4.34-1.39,1.34-2.66,2.53-3.8,3.56-2.58,2.38-4.29,3.56-5.12,3.56Z"/>
    <path id="adhitama-a3" class="outline" mask="url(#mmask-adhitama-a3)" d="M1097.4,93c-3.1,0-5.92-.8-8.45-2.4-2.53-1.6-3.8-4.52-3.8-8.76,0-1.55.21-3.18.62-4.88.41-1.71.88-3.38,1.39-5.04-1.76,1.76-3.93,3.8-6.51,6.12-2.58,2.32-5.4,4.57-8.45,6.74-3.05,2.17-6.1,3.95-9.14,5.35-3.05,1.39-5.92,2.09-8.6,2.09-3.31,0-5.99-1.19-8.06-3.56-1.45-1.55-2.17-3.62-2.17-6.2,0-2.89.96-6.02,2.87-9.38,1.91-3.36,4.44-6.66,7.59-9.92,3.15-3.25,6.56-6.12,10.23-8.6,3.67-2.48,7.26-4.29,10.77-5.42,4.86-1.55,8.73-2.32,11.62-2.32,3.31,0,5.68.85,7.13,2.56,1.45,1.7,2.38,4.06,2.79,7.05v.46c0,1.34-.46,2.38-1.4,3.1-.41.21-.72.31-.93.31-1.03,0-1.55-.77-1.55-2.32,0-.72-.16-1.73-.46-3.02-.31-1.29-1.34-1.99-3.1-2.09-2.38-.31-5.19.18-8.45,1.47-3.25,1.29-6.59,3.1-10,5.42-3.41,2.33-6.64,4.88-9.69,7.67-3.05,2.79-5.58,5.56-7.59,8.29-2.01,2.74-3.18,5.14-3.49,7.21-.1.31-.16.62-.16.93v.78c0,1.55.33,2.58,1.01,3.1.67.52,1.47.77,2.4.77,1.76,0,3.77-.54,6.04-1.63,2.27-1.08,4.42-2.3,6.43-3.64,2.02-1.34,3.43-2.38,4.26-3.1,3.2-2.69,6.84-5.66,10.93-8.91,4.08-3.25,7.72-6.28,10.93-9.07.52-.41,1.29-.62,2.32-.62,1.55,0,2.84.41,3.88,1.24.41.31.62.88.62,1.71,0,1.24-.46,2.79-1.39,4.65-1.65,3.51-3.05,6.66-4.19,9.46-1.14,2.79-1.71,5.06-1.71,6.82,0,2.48,1.45,3.72,4.34,3.72,2.27,0,5.94-.88,11-2.63,5.27-1.96,10.62-4.7,16.04-8.21,5.42-3.51,10.31-7.03,14.65-10.54.52-.52,1.03-.95,1.55-1.32.52-.36.98-.7,1.39-1.01.52-.41,1.01-.8,1.47-1.16.46-.36,1.01-.8,1.63-1.32.31-.1.67-.16,1.08-.16.83,0,1.24.36,1.24,1.08,0,.62-.26,1.19-.77,1.71-.62.83-2.12,2.32-4.5,4.49-2.38,2.17-5.3,4.6-8.76,7.29-3.46,2.69-7.23,5.25-11.32,7.67-4.08,2.43-8.19,4.37-12.32,5.81-1.55.52-3.33,1.01-5.35,1.47s-4.01.7-5.97.7Z"/>
  </g>
</svg>
